<?xml version="1.0" encoding="UTF-8" standalone="no"?>
<!DOCTYPE svg PUBLIC "-//W3C//DTD SVG 1.1//EN" "http://www.w3.org/Graphics/SVG/1.1/DTD/svg11.dtd">
<svg xmlns="http://www.w3.org/2000/svg" version="1.1" xmlns:xlink="http://www.w3.org/1999/xlink" viewBox="0 0 512 288">

<!-- Copyright 2015-2022 Isaac Gouy -->

<!-- Box plot chart showing benchmark program performance grouped by implementation language -->

<!-- The Computer Language Benchmarks Game -->
<!-- https://benchmarksgame-team.pages.debian.net/benchmarksgame/license.html -->

<g style="stroke: #ccc;" >
<line x1="51" y1="264" x2="461" y2="264" />
<line x1="51" y1="221.57" x2="461" y2="221.57" />
<line x1="51" y1="201.85" x2="461" y2="201.85" />
<line x1="51" y1="175.08" x2="461" y2="175.08" />
<line x1="51" y1="132.65" x2="461" y2="132.65" />
<line x1="51" y1="112.92" x2="461" y2="112.92" />
<line x1="51" y1="86.15" x2="461" y2="86.15" />
<line x1="51" y1="43.73" x2="461" y2="43.73" />
<line x1="51" y1="24" x2="461" y2="24" />
</g>
<g style="text-anchor: end; font-family: Ubuntu,Verdana,sans-serif; font-size: 0.9em;" >
<text x="51" y="262" >1</text>
<text x="51" y="219.57" >3</text>
<text x="51" y="199.85" >5</text>
<text x="51" y="173.08" >10</text>
<text x="51" y="130.65" >30</text>
<text x="51" y="110.92" >50</text>
<text x="51" y="84.15" >100</text>
<text x="51" y="41.73" >300</text>
<text x="51" y="22" ></text>
</g>
<defs>
<linearGradient id="grade" x1="0" y1="0" x2="0" y2="1">
<stop offset="0" style="stop-color: white" stop-opacity="0.6"/>
<stop offset="1" style="stop-color: white" stop-opacity="0.8"/>
</linearGradient>
<mask id="fade">
<rect x="58" y="24" width="452" height="288" fill="url(#grade)"  />
</mask>
<g id="backgroundText" style="text-anchor: end; font-family: Ubuntu,Verdana,sans-serif; font-size: 1em;">
<text x="16" y="0" transform="rotate(270,16,0)" xml:space="preserve">   C gcc   C gcc   C gcc   C gcc   C gcc</text>
<text x="43" y="0" transform="rotate(270,43,0)" xml:space="preserve">   Intel C   Intel C   Intel C   Intel C</text>
<text x="70" y="0" transform="rotate(270,70,0)" xml:space="preserve">   Rust   Rust   Rust   Rust   Rust   Rust</text>
<text x="97" y="0" transform="rotate(270,97,0)" xml:space="preserve">   C clang   C clang   C clang   C clang</text>
<text x="124" y="0" transform="rotate(270,124,0)" xml:space="preserve">   C++ g++   C++ g++   C++ g++   C++ g++</text>
<text x="151" y="0" transform="rotate(270,151,0)" xml:space="preserve">   C# aot   C# aot   C# aot   C# aot   C# aot</text>
<text x="178" y="0" transform="rotate(270,178,0)" xml:space="preserve">   Intel Fortran   Intel Fortran   Intel Fortran</text>
<text x="205" y="0" transform="rotate(270,205,0)" xml:space="preserve">   C# .NET   C# .NET   C# .NET   C# .NET</text>
<text x="232" y="0" transform="rotate(270,232,0)" xml:space="preserve">   Chapel   Chapel   Chapel   Chapel   Chapel</text>
<text x="259" y="0" transform="rotate(270,259,0)" xml:space="preserve">   Classic Fortran   Classic Fortran</text>
<text x="286" y="0" transform="rotate(270,286,0)" xml:space="preserve">   Julia   Julia   Julia   Julia   Julia</text>
<text x="313" y="0" transform="rotate(270,313,0)" xml:space="preserve">   Java GraalVM   Java GraalVM   Java GraalVM</text>
<text x="340" y="0" transform="rotate(270,340,0)" xml:space="preserve">   Java   Java   Java   Java   Java   Java</text>
<text x="367" y="0" transform="rotate(270,367,0)" xml:space="preserve">   F# .NET   F# .NET   F# .NET   F# .NET</text>
<text x="394" y="0" transform="rotate(270,394,0)" xml:space="preserve">   Ada 2012 GNAT   Ada 2012 GNAT   Ada 2012 GNAT</text>
</g>
</defs>
<use x="60" y="27" xlink:href="#backgroundText"/>
<rect x="58" y="24" width="452" height="288" fill="white" mask="url(#fade)" />
<rect x="58" y="264" width="452" height="288" style="fill: white; stroke: white;" />
<g style="fill: black; stroke: black;">
<rect x="72" y="237.14" width="1" height="26.86" />
<rect x="99" y="235.43" width="1" height="28.57" />
<rect x="126" y="240.24" width="1" height="23.76" />
<rect x="153" y="231.61" width="1" height="32.09" />
<rect x="180" y="240.24" width="1" height="23.76" />
<rect x="207" y="209.82" width="1" height="54.18" />
<rect x="234" y="200.94" width="1" height="55.14" />
<rect x="261" y="216.6" width="1" height="45.91" />
<rect x="288" y="184.44" width="1" height="78.57" />
<rect x="315" y="208.11" width="1" height="48.38" />
<rect x="342" y="191.19" width="1" height="59.17" />
<rect x="369" y="181.47" width="1" height="72.56" />
<rect x="396" y="184.29" width="1" height="71.41" />
<rect x="423" y="171.4" width="1" height="81.31" />
<rect x="450" y="190.23" width="1" height="65.68" />
</g>
<g style="fill: white; stroke: black;">
<rect x="62" y="247.11" width="22" height="16.36" />
<rect x="89" y="249.96" width="22" height="14.04" />
<rect x="116" y="250.92" width="22" height="13.08" />
<rect x="143" y="247.12" width="22" height="15.43" />
<rect x="170" y="247.64" width="22" height="16.36" />
<rect x="197" y="228.6" width="22" height="20.87" />
<rect x="224" y="220.98" width="22" height="23.34" />
<rect x="251" y="233.43" width="22" height="17.48" />
<rect x="278" y="211.1" width="22" height="42.02" />
<rect x="305" y="226.12" width="22" height="19.48" />
<rect x="332" y="213.29" width="22" height="32.96" />
<rect x="359" y="205.99" width="22" height="34.56" />
<rect x="386" y="204.39" width="22" height="37.55" />
<rect x="413" y="197.78" width="22" height="40.91" />
<rect x="440" y="206.78" width="22" height="17.04" />
</g>
<g style="fill: black; stroke: black;">
<line x1="68.5" y1="264" x2="78" y2="264" />
<line x1="68.5" y1="237.14" x2="78" y2="237.14" />
</g>
<g style="fill: black; stroke: black;">
<rect x="63" y="261.14" width="20" height="1" />
</g>
<g style="fill: black; stroke: black;">
<line x1="95.5" y1="264" x2="105" y2="264" />
<line x1="95.5" y1="235.43" x2="105" y2="235.43" />
<line x1="95.5" y1="220.92" x2="105" y2="220.92" />
<rect x="99" y="220.92" width="1" height="5" />
</g>
<g style="fill: black; stroke: black;">
<rect x="90" y="260.84" width="20" height="1" />
</g>
<g style="fill: black; stroke: black;">
<line x1="122.5" y1="264" x2="132" y2="264" />
<line x1="122.5" y1="240.24" x2="132" y2="240.24" />
</g>
<g style="fill: black; stroke: black;">
<rect x="117" y="260.09" width="20" height="1" />
</g>
<g style="fill: black; stroke: black;">
<line x1="149.5" y1="263.7" x2="159" y2="263.7" />
<line x1="149.5" y1="231.61" x2="159" y2="231.61" />
<line x1="149.5" y1="219.65" x2="159" y2="219.65" />
<rect x="153" y="219.65" width="1" height="5" />
</g>
<g style="fill: black; stroke: black;">
<rect x="144" y="260.01" width="20" height="1" />
</g>
<g style="fill: black; stroke: black;">
<line x1="176.5" y1="264" x2="186" y2="264" />
<line x1="176.5" y1="240.24" x2="186" y2="240.24" />
</g>
<g style="fill: black; stroke: black;">
<rect x="171" y="258.1" width="20" height="1" />
</g>
<g style="fill: black; stroke: black;">
<line x1="203.5" y1="264" x2="213" y2="264" />
<line x1="203.5" y1="209.82" x2="213" y2="209.82" />
<line x1="203.5" y1="204.53" x2="213" y2="204.53" />
<rect x="207" y="204.53" width="1" height="5" />
</g>
<g style="fill: black; stroke: black;">
<rect x="198" y="239.54" width="20" height="1" />
</g>
<g style="fill: black; stroke: black;">
<line x1="230.5" y1="256.08" x2="240" y2="256.08" />
<line x1="230.5" y1="200.94" x2="240" y2="200.94" />
<line x1="230.5" y1="185.18" x2="240" y2="185.18" />
<rect x="234" y="185.18" width="1" height="5" />
</g>
<g style="fill: black; stroke: black;">
<rect x="225" y="238.7" width="20" height="1" />
</g>
<g style="fill: black; stroke: black;">
<line x1="257.5" y1="262.51" x2="267" y2="262.51" />
<line x1="257.5" y1="216.6" x2="267" y2="216.6" />
<line x1="257.5" y1="203.33" x2="267" y2="203.33" />
<rect x="261" y="203.33" width="1" height="5" />
</g>
<g style="fill: black; stroke: black;">
<rect x="252" y="238.35" width="20" height="1" />
</g>
<g style="fill: black; stroke: black;">
<line x1="284.5" y1="263.01" x2="294" y2="263.01" />
<line x1="284.5" y1="184.44" x2="294" y2="184.44" />
<line x1="284.5" y1="178.7" x2="294" y2="178.7" />
<rect x="288" y="178.7" width="1" height="5" />
</g>
<g style="fill: black; stroke: black;">
<rect x="279" y="235.17" width="20" height="1" />
</g>
<g style="fill: black; stroke: black;">
<line x1="311.5" y1="256.49" x2="321" y2="256.49" />
<line x1="311.5" y1="208.11" x2="321" y2="208.11" />
<line x1="311.5" y1="176" x2="321" y2="176" />
<rect x="315" y="176" width="1" height="5" />
</g>
<g style="fill: black; stroke: black;">
<rect x="306" y="234.85" width="20" height="1" />
</g>
<g style="fill: black; stroke: black;">
<line x1="338.5" y1="250.36" x2="348" y2="250.36" />
<line x1="338.5" y1="191.19" x2="348" y2="191.19" />
</g>
<g style="fill: black; stroke: black;">
<rect x="333" y="225.56" width="20" height="1" />
</g>
<g style="fill: black; stroke: black;">
<line x1="365.5" y1="254.02" x2="375" y2="254.02" />
<line x1="365.5" y1="181.47" x2="375" y2="181.47" />
<line x1="365.5" y1="181.35" x2="375" y2="181.35" />
<rect x="369" y="181.35" width="1" height="5" />
</g>
<g style="fill: black; stroke: black;">
<rect x="360" y="222.63" width="20" height="1" />
</g>
<g style="fill: black; stroke: black;">
<line x1="392.5" y1="255.7" x2="402" y2="255.7" />
<line x1="392.5" y1="184.29" x2="402" y2="184.29" />
</g>
<g style="fill: black; stroke: black;">
<rect x="387" y="220.29" width="20" height="1" />
</g>
<g style="fill: black; stroke: black;">
<line x1="419.5" y1="252.71" x2="429" y2="252.71" />
<line x1="419.5" y1="171.4" x2="429" y2="171.4" />
<line x1="419.5" y1="92.69" x2="429" y2="92.69" />
<rect x="423" y="92.69" width="1" height="5" />
</g>
<g style="fill: black; stroke: black;">
<rect x="414" y="218.27" width="20" height="1" />
</g>
<g style="fill: black; stroke: black;">
<line x1="446.5" y1="255.92" x2="456" y2="255.92" />
<line x1="446.5" y1="190.23" x2="456" y2="190.23" />
<line x1="446.5" y1="181.64" x2="456" y2="181.64" />
<rect x="450" y="181.64" width="1" height="5" />
</g>
<g style="fill: black; stroke: black;">
<rect x="441" y="213.56" width="20" height="1" />
</g>
<g style="text-anchor: end; font-family: Ubuntu,Verdana,sans-serif; font-size: 0.9em;" >
<text x="462" y="282" >21 Jun 2024 u64q</text>
<text x="58" y="282" style="text-anchor: start;" >benchmarks game</text>
</g>
<text x="16" y="144" transform="rotate(270,16,144)" style="text-anchor: middle; font-family: Ubuntu,Verdana,sans-serif; font-size: 0.9em;" >program elapsed seconds / fastest</text>
<rect x="58" y="0" width="452" height="23" style="fill: white; stroke: white;" />
<text x="259.5" y="18" style="text-anchor: middle; font-family: Ubuntu,Verdana,sans-serif; font-size: 1.2em;" >How many times slower? (Percentiles)</text>
<g style="stroke: #333;">
<line x1="58" y1="24" x2="58" y2="264" />
<line x1="461" y1="24" x2="461" y2="264" />
<line x1="58" y1="264" x2="461" y2="264" />
</g>
</svg>

